<!--?xml version="1.0" encoding="UTF-8"?-->
<svg xmlns="http://www.w3.org/2000/svg" viewBox="0 0 120 140" width="240" height="280" role="img" aria-label="Navy shield badge">
  <title>Navy shield badge</title>

  <!-- Base shield -->
  <path d="M60 6
           C84 6 102 20 108 38
           C108 78 88 106 60 129
           C32 106 12 78 12 38
           C18 20 36 6 60 6 Z" fill="#0b2545"></path>

  <!-- Inner border for subtle badge effect -->
  <path d="M60 18
           C80 18 95 30 98 44
           C98 76 82 98 60 116
           C38 98 22 76 22 44
           C25 30 40 18 60 18 Z" fill="none" stroke="#ffffff" stroke-opacity="0.08" stroke-width="4" stroke-linejoin="round"></path>

  <!-- Thin white outline to keep contrast on darker backgrounds -->
  <path d="M60 6
           C84 6 102 20 108 38
           C108 78 88 106 60 129
           C32 106 12 78 12 38
           C18 20 36 6 60 6 Z" fill="none" stroke="#ffffff" stroke-opacity="0.06" stroke-width="2" stroke-linejoin="round"></path>

</svg>
