<?xml version="1.0" encoding="UTF-8" standalone="no"?>
<!--?xml version="1.0" encoding="UTF-8"?-->

<svg
   width="1200"
   height="400"
   viewBox="0 0 1200 400"
   role="img"
   aria-label="Hope Renewed LLC logo - shield with cross and text"
   version="1.1"
   id="svg4"
   sodipodi:docname="logo.svg"
   inkscape:version="1.4.2 (1:1.4.2+202505120737+ebf0e940d0)"
   xmlns:inkscape="http://www.inkscape.org/namespaces/inkscape"
   xmlns:sodipodi="http://sodipodi.sourceforge.net/DTD/sodipodi-0.dtd"
   xmlns="http://www.w3.org/2000/svg"
   xmlns:svg="http://www.w3.org/2000/svg">
  <sodipodi:namedview
     id="namedview4"
     pagecolor="#ffffff"
     bordercolor="#000000"
     borderopacity="0.25"
     inkscape:showpageshadow="2"
     inkscape:pageopacity="0.0"
     inkscape:pagecheckerboard="0"
     inkscape:deskcolor="#d1d1d1"
     inkscape:zoom="1.5158333"
     inkscape:cx="600.32985"
     inkscape:cy="200.2199"
     inkscape:window-width="1920"
     inkscape:window-height="1043"
     inkscape:window-x="0"
     inkscape:window-y="0"
     inkscape:window-maximized="1"
     inkscape:current-layer="svg4" />
  <title
     id="title1">Hope Renewed LLC</title>
  <!-- Colors -->
  <defs
     id="defs1">
    <style
       id="style1">
      .navy { fill: #0b2545; }
      .white { fill: #ffffff; }
      .wordmark { font-family: &quot;Inter&quot;, &quot;Segoe UI&quot;, Roboto, Arial, sans-serif; font-weight: 800; fill: #0b2545; letter-spacing: 1px; }
      .sub { font-family: &quot;Inter&quot;, &quot;Segoe UI&quot;, Roboto, Arial, sans-serif; font-weight: 600; fill: #0b2545; }
    </style>
  </defs>
  <!-- Shield (left) -->
  <!-- Wordmark (right) -->
  <g
     id="g6">
    <g
       transform="translate(360,90)"
       id="g4">
      <!-- HOPE RENEWED -->
      <text
         class="wordmark"
         x="0"
         y="90"
         font-size="80"
         id="text2">HOPE</text>
      <text
         class="wordmark"
         x="0"
         y="180"
         font-size="80"
         id="text3">RENEWED</text>
      <!-- LLC -->
      <text
         class="sub"
         x="0"
         y="240"
         font-size="30"
         id="text4">LLC</text>
    </g>
    <g
       id="g3"
       transform="matrix(1.5685725,0,0,1.6258847,160.86092,118.29016)">
      <path
         d="m 60,6 c 24,0 42,14 48,32 0,40 -20,68 -48,91 C 32,106 12,78 12,38 18,20 36,6 60,6 Z"
         fill="#0b2545"
         id="path1-6" />
      <path
         d="M 60,18 C 80,18 95,30 98,44 98,76 82,98 60,116 38,98 22,76 22,44 25,30 40,18 60,18 Z"
         fill="none"
         stroke="#ffffff"
         stroke-opacity="0.08"
         stroke-width="4"
         stroke-linejoin="round"
         id="path2" />
      <path
         d="m 60,6 c 24,0 42,14 48,32 0,40 -20,68 -48,91 C 32,106 12,78 12,38 18,20 36,6 60,6 Z"
         fill="none"
         stroke="#ffffff"
         stroke-opacity="0.06"
         stroke-width="2"
         stroke-linejoin="round"
         id="path3" />
    </g>
    <g
       id="g5"
       transform="matrix(1.0288306,0,0,1,151.66341,101.35239)">
      <path
         id="rect1"
         class="white"
         d="M 83.357999,56.491752 V 87.368604 H 54.235357 v 35.287836 h 29.122642 v 57.34273 h 33.283021 v -57.34273 h 29.12265 V 87.368604 H 116.64102 V 56.491752 Z"
         style="stroke-width:0.856769" />
    </g>
  </g>
</svg>
